<?xml version="1.0" encoding="UTF-8"?>
<svg width="150px" height="150px" viewBox="0 0 150 150" version="1.1" xmlns="http://www.w3.org/2000/svg" xmlns:xlink="http://www.w3.org/1999/xlink">
    <!-- Generator: Sketch 49.3 (51167) - http://www.bohemiancoding.com/sketch -->
    <title>icon_face</title>
    <desc>Created with Sketch.</desc>
    <defs></defs>
    <g id="Page-1" stroke="none" stroke-width="1" fill="none" fill-rule="evenodd">
        <g id="Artboard" transform="translate(-20.000000, -31.000000)" fill="#071C32">
            <g id="Icon/Face" transform="translate(20.000000, 31.000000)">
                <path d="M111.925289,71.559482 C111.844674,71.5619819 40.6844878,68.5695754 40.6844878,68.5695754 C36.9484961,68.5695754 35.6133137,66.054654 36.1473866,63.2747408 L41.1177923,40.1704626 C41.4049824,38.7480071 43.085297,36.5530756 45.4861062,36.7280702 L107.922261,40.1929619 C109.501807,40.2679596 112.013461,40.9004398 112.635707,44.607824 L116.127335,66.3971433 C116.928444,69.9720316 114.12708,71.7594757 111.925289,71.559482 Z M104.838745,96.3187085 L104.828668,96.3312081 C103.5741,97.806162 99.9691078,99.3136149 95.0264136,99.1361204 C88.7434984,98.9086276 86.3351316,97.006187 86.3124586,96.9886875 L86.2721513,96.9611884 C84.8362003,96.0087181 83.6899588,93.996281 83.1256552,91.4413608 C82.6066975,89.0814346 82.6696778,86.5990121 83.289404,84.9590634 L83.3020001,84.9215645 C84.1938012,81.9441575 87.4612194,80.8191927 89.8418749,80.234211 C91.8295333,79.7442263 93.8902489,79.496734 95.9610413,79.496734 C100.193318,79.496734 103.070258,80.234211 105.889256,82.0441544 C107.577129,83.2966153 108.332892,85.2640538 108.136394,87.8989715 C107.851723,91.691353 106.957402,93.9712818 104.838745,96.3187085 Z M85.0528526,115.063123 L75.5,115.063123 L65.9471474,115.063123 C58.5230292,115.063123 52.1594992,110.733258 49.1565983,104.500953 C51.9302509,105.255929 54.6913074,105.408424 56.2456614,105.408424 C60.5560334,105.408424 64.0048349,104.553451 67.0908698,102.716009 C70.7613619,100.593575 72.9782686,96.5137024 73.7894549,90.2563979 C73.9582421,89.0889343 74.7946206,88.6314486 75.5881724,88.58895 C76.4648583,88.5489512 77.3390249,89.0614352 77.5002545,90.2563979 C78.31396,96.5162023 80.4955977,100.593575 84.1660899,102.716009 C87.254644,104.553451 90.7009263,105.408424 95.0138175,105.408424 C96.5102295,105.408424 99.1327294,105.275929 101.800575,104.59095 C98.7800397,110.775757 92.4417019,115.063123 85.0528526,115.063123 Z M96.1340499,85.2307347 C97.7152623,86.0042 98.0357151,88.6649203 96.8521449,91.1780873 C95.6662356,93.6912543 93.423066,95.100151 91.8418537,94.3290656 C90.2606414,93.5579803 89.9401886,90.8948801 91.1237587,88.3817131 C92.309668,85.8709259 94.5504985,84.4596494 96.1340499,85.2307347 Z M59.1581463,94.3292653 C57.576934,95.1003506 55.3337644,93.6890741 54.1478551,91.1782869 C52.9642849,88.6651199 53.2847377,86.0020197 54.8659501,85.2309344 C56.4471624,84.459849 58.690332,85.8687457 59.8762413,88.3819127 C61.0598114,90.8950797 60.7393586,93.5558 59.1581463,94.3292653 Z M73.4620189,103.621084 L71.3253012,106.44 L78.4819277,106.44 L76.5506155,103.677561 C75.8141618,102.62415 74.2385517,102.59714 73.4620189,103.621084 Z M68.2471882,76.1943372 C72.7968853,76.3668318 77.5078121,76.5468262 82.1330857,76.7218207 C81.2135732,77.3118023 80.3268105,78.0042806 79.5231818,78.8667537 C78.611227,79.8117242 77.5506387,80.2592102 76.5353962,80.4092055 C76.4799735,80.4142053 76.4245509,80.4167053 76.3691282,80.4217051 C76.0794188,80.4542041 75.7922286,80.4767034 75.5176345,80.4667037 C74.1673368,80.424205 72.6633671,79.9692192 71.736297,78.8667537 C70.6782279,77.7342891 69.4891598,76.8743159 68.2471882,76.1943372 Z M46.4207339,96.3187085 C44.2995572,93.9712818 43.4052369,91.691353 43.1205659,87.8989715 C42.9240674,85.2640538 43.679831,83.2966153 45.3702224,82.0441544 C48.1867016,80.234211 51.0636419,79.496734 55.2959184,79.496734 C57.36923,79.496734 59.4274263,79.7442263 61.4150847,80.234211 C63.7957402,80.8191927 67.0631584,81.9441575 67.9574788,84.9215645 L67.9700748,84.9590634 C68.5872818,86.5990121 68.6502621,89.0814346 68.1313044,91.4413608 C67.5695201,93.996281 66.4232785,96.0087181 64.9848084,96.9611884 L64.9470202,96.9886875 C64.9243473,97.006187 62.5134612,98.9086276 56.2330653,99.1361204 C51.290371,99.3136149 47.6853784,97.806162 46.4282915,96.3312081 L46.4207339,96.3187085 Z M61.9239656,25.9034083 C67.2470609,23.6059801 73.3082854,22.4460164 78.9840704,22.6410103 C83.7353046,22.8160048 88.7762482,24.1309637 93.1747926,26.3408947 C96.8301695,28.1758374 99.9061275,30.588262 102.274187,33.4181736 L53.8725635,30.7682564 C56.1499313,28.8858152 58.8782381,27.2183673 61.9239656,25.9034083 Z M124.221563,102.486016 L118.306453,77.1193083 C120.767724,75.6993526 123.314647,72.5219519 122.732709,67.589606 L118.240954,41.0754344 C117.795053,39.135495 117.26098,37.8105364 116.124816,36.5655752 C114.620846,35.1231203 112.696168,34.238148 110.640491,33.9531569 C110.607741,33.8781592 110.61026,33.7956618 110.567433,33.723164 C107.44613,28.185837 102.473205,23.5934805 96.1877704,20.4360792 C90.9452898,17.8036614 84.9243727,16.2362104 79.2233956,16.0262169 C72.4693878,15.7937242 65.5667464,17.111183 59.2636775,19.833598 C53.2981831,22.4110175 48.4209883,26.0234046 45.0528017,30.3032709 C44.45071,30.300771 43.4858517,30.3082707 43.4858517,30.3082707 C43.4858517,30.3082707 40.2259911,30.620761 38.550715,32.028217 C36.8628429,33.4456727 35.7972161,35.9955931 35.3613924,38.1455259 L29.2245916,63.3747377 C28.6552496,66.1846499 29.3555906,69.0870592 31.1391928,71.3394889 C31.8168609,72.1919622 32.6532394,72.871941 33.5500789,73.4494229 L26.7809558,102.486016 C26.6549952,102.788506 26,106.648386 26,108.10334 C26,114.243148 30.3128912,119.385488 36.0995216,120.705447 C36.1070792,120.707947 36.1121177,120.707947 36.1196753,120.710446 C36.6159601,120.822943 36.9610922,121.262929 36.9484961,121.767913 C36.9459769,121.86791 36.9459769,121.967907 36.9459769,122.070404 C36.9459769,126.532765 39.2258639,130.467642 42.6922999,132.792569 C44.7706499,134.187525 47.2797852,135 49.9778615,135 C61.7753321,135 61.1354522,123.195369 75.3060207,123.195369 L75.5,123.195369 L75.6939793,123.195369 C89.8645478,123.195369 89.2271871,135 101.022139,135 C103.722734,135 106.22935,134.187525 108.3077,132.792569 C111.774136,130.467642 114.056542,126.532765 114.056542,122.070404 L114.056542,122.057904 C114.056542,121.390425 114.499924,120.807943 115.1524,120.645448 C120.81055,119.235493 125,114.155651 125,108.10334 C125,106.648386 124.347524,102.788506 124.221563,102.486016 Z" id="Fill-7"></path>
            </g>
        </g>
    </g>
</svg>